<?xml version="1.0" encoding="UTF-8" standalone="no"?>
<!-- Created with Inkscape (http://www.inkscape.org/) -->

<svg
   xmlns:dc="http://purl.org/dc/elements/1.1/"
   xmlns:cc="http://creativecommons.org/ns#"
   xmlns:rdf="http://www.w3.org/1999/02/22-rdf-syntax-ns#"
   xmlns:svg="http://www.w3.org/2000/svg"
   xmlns="http://www.w3.org/2000/svg"
   xmlns:xlink="http://www.w3.org/1999/xlink"
   xmlns:sodipodi="http://sodipodi.sourceforge.net/DTD/sodipodi-0.dtd"
   xmlns:inkscape="http://www.inkscape.org/namespaces/inkscape"
   width="320"
   height="240"
   id="svg2"
   version="1.1"
   inkscape:version="0.48.2 r9819"
   sodipodi:docname="flogo.svg">
  <defs
     id="defs4" />
  <sodipodi:namedview
     id="base"
     pagecolor="#ffffff"
     bordercolor="#666666"
     borderopacity="1.0"
     inkscape:pageopacity="0.0"
     inkscape:pageshadow="2"
     inkscape:zoom="1.4"
     inkscape:cx="164.09552"
     inkscape:cy="111.54205"
     inkscape:document-units="px"
     inkscape:current-layer="layer1"
     showgrid="false"
     inkscape:window-width="1024"
     inkscape:window-height="712"
     inkscape:window-x="0"
     inkscape:window-y="0"
     inkscape:window-maximized="1" />
  <metadata
     id="metadata7">
    <rdf:RDF>
      <cc:Work
         rdf:about="">
        <dc:format>image/svg+xml</dc:format>
        <dc:type
           rdf:resource="http://purl.org/dc/dcmitype/StillImage" />
        <dc:title></dc:title>
      </cc:Work>
    </rdf:RDF>
  </metadata>
  <g
     inkscape:label="Layer 1"
     inkscape:groupmode="layer"
     id="layer1"
     transform="translate(0,-812.36218)">
    <path
       style="fill:none;stroke:#000000;stroke-width:1px;stroke-linecap:butt;stroke-linejoin:miter;stroke-opacity:1"
       d="m 3.9438004,857.33422 c 0,0 37.4115386,-24.157 57.1095136,-23.28427 20.44644,0.90589 -28.284272,98.10472 5.555839,157.70375"
       id="path3001"
       inkscape:connector-curvature="0"
       sodipodi:nodetypes="csc" />
    <path
       style="fill:none;stroke:#000000;stroke-width:1px;stroke-linecap:butt;stroke-linejoin:miter;stroke-opacity:1"
       d="m 58.527932,891.12357 c 0,0 33.840111,-13.63706 43.436558,-14.64721 9.59645,-1.01016 -3.53553,71.72083 -3.53553,71.72083 0,0 -1.010155,-33.84011 30.80965,-61.11423 31.81981,-27.27412 34.34519,-19.1929 36.87057,-15.65736 2.52538,3.53553 -18.68782,74.75128 -10.6066,77.27666 8.08122,2.52539 15.15228,-7.07106 15.15228,-7.07106"
       id="path3003"
       inkscape:connector-curvature="0" />
    <path
       style="fill:none;stroke:#000000;stroke-width:1px;stroke-linecap:butt;stroke-linejoin:miter;stroke-opacity:1"
       d="m 153.48227,835.56518 c 6.56599,-0.50507 22.22336,7.07106 23.73858,16.16244"
       id="path3005"
       inkscape:connector-curvature="0"
       sodipodi:nodetypes="cc" />
    <path
       style="fill:none;stroke:#000000;stroke-width:1px;stroke-linecap:butt;stroke-linejoin:miter;stroke-opacity:1"
       d="m 191.36299,872.94082 c 0,0 2.52538,-8.08122 9.09138,-12.6269 6.56599,-4.54569 -0.0385,102.0215 1.51522,86.87312 2.02031,-19.69798 0.54792,-85.34656 24.74874,-86.87312 18.68081,-1.17837 39.69445,84.32499 42.72491,136.34788"
       id="path3026"
       inkscape:connector-curvature="0"
       sodipodi:nodetypes="csssc" />
    <path
       style="fill:none;stroke:#000000;stroke-width:1px;stroke-linecap:butt;stroke-linejoin:miter;stroke-opacity:1"
       d="m 296.92393,834.55503 c 0,0 -60.10891,139.15657 -80.18086,154.93217"
       id="path3028"
       inkscape:connector-curvature="0"
       sodipodi:nodetypes="cc" />
    <path
       style="fill:none;stroke:#000000;stroke-width:1px;stroke-linecap:butt;stroke-linejoin:miter;stroke-opacity:1"
       d="m 13.576144,995.6744 c 8.057944,-2.0257 16.116833,-4.1469 24.525044,-3.5356 20.187457,0.1466 40.433428,-0.3024 60.581192,0.2419 11.99887,1.3131 24.27481,0.7457 36.36848,0.5485 12.92763,-1.5686 25.81867,-3.2539 38.91585,-2.8107 14.32785,0.048 28.65006,0.074 42.93148,-0.5051 7.49952,0.4324 15.47876,-1.1674 22.44705,1.5153 5.06177,1.271 10.9013,-0.5115 15.65736,1.5152 9.01669,2.9679 18.27425,6.2453 28.03043,6.0948 8.72149,0.853 16.8569,-2.3618 25.32857,-3.4994 -2.79948,0.3294 5.37418,-2.1064 5.73493,-2.5954"
       id="path3030"
       inkscape:connector-curvature="0" />
    <text
       xml:space="preserve"
       style="font-size:10px;font-style:normal;font-weight:normal;line-height:125%;letter-spacing:0px;word-spacing:0px;fill:#000000;fill-opacity:1;stroke:none;font-family:Sans"
       id="text3034"
       sodipodi:linespacing="125%"><textPath
         xlink:href="#path3030-1"
         id="textPath3063"><tspan
   style="font-size:28px;font-style:normal;font-variant:normal;font-weight:normal;font-stretch:normal;font-family:'文泉驿等宽微米黑';-inkscape-font-specification:'文泉驿等宽微米黑'"
   id="tspan3036">FRINX GAME ENGINE</tspan></textPath></text>
    <path
       style="fill:none;stroke:#000000;stroke-width:1px;stroke-linecap:butt;stroke-linejoin:miter;stroke-opacity:1"
       d="m 14.025519,1020.9755 c 8.057944,-2.0257 16.116833,-4.1469 24.525044,-3.5356 20.187457,0.1466 40.433428,-0.3024 60.581192,0.2419 11.998865,1.3131 24.274815,0.7457 36.368485,0.5485 12.92763,-1.5686 25.81867,-3.2539 38.91585,-2.8107 14.32785,0.048 28.65006,0.074 42.93148,-0.5051 7.49952,0.4324 15.47876,-1.1674 22.44705,1.5153 5.06177,1.271 10.9013,-0.5115 15.65736,1.5152 9.01669,2.9679 18.27425,6.2453 28.03043,6.0948 8.72149,0.853 16.8569,-2.3618 25.32857,-3.4994 -2.79948,0.3294 5.37418,-2.1064 5.73493,-2.5954"
       id="path3030-1"
       inkscape:connector-curvature="0" />
  </g>
</svg>
